<?xml version="1.0" standalone="no"?><!DOCTYPE svg PUBLIC "-//W3C//DTD SVG 1.1//EN"
        "http://www.w3.org/Graphics/SVG/1.1/DTD/svg11.dtd">
<svg t="1731169694881" class="icon" viewBox="0 0 1024 1024" version="1.1" xmlns="http://www.w3.org/2000/svg" p-id="1402"
     width="10" height="10">
    <path d="M959.525926 517.562469c34.740148 0 63.159309 28.41916 63.955753 63.159309v254.230123c0 104.207802-84.486321 188.681481-188.694123 188.681482H200.805136C96.597333 1023.633383 12.136296 939.172346 12.136296 834.939259V200.969481C12.123654 96.761679 96.584691 12.275358 200.805136 12.275358h253.433679a63.336296 63.336296 0 0 1 63.159308 63.159309 63.336296 63.336296 0 0 1-63.159308 63.159308H200.805136c-34.727506 0-62.362864 28.431802-62.362864 62.375506v633.185976c0 34.740148 28.41916 62.375506 62.362864 62.375506H833.991111c34.740148 0 62.375506-28.431802 62.375506-62.375506V580.721778A63.336296 63.336296 0 0 1 959.525926 517.562469z m0-505.287111c34.740148 0 63.159309 28.41916 63.955753 63.159309v252.649876a63.336296 63.336296 0 0 1-63.171951 63.159309 63.336296 63.336296 0 0 1-63.159308-63.159309V227.808395l-428.689383 428.702025c-12.641975 11.845531-28.431802 18.166519-45.005432 18.166518-16.586272 0-32.363457-5.524543-45.005432-18.166518-24.474864-24.474864-24.474864-64.726914 0-89.21442l428.689383-428.689383h-100.250865a63.336296 63.336296 0 0 1-63.159308-63.17195A63.336296 63.336296 0 0 1 706.888691 12.275358H959.525926z"
          fill="#FF4A4A" p-id="1403"></path>
</svg>