<?xml version="1.0" standalone="no"?><!DOCTYPE svg PUBLIC "-//W3C//DTD SVG 1.1//EN" "http://www.w3.org/Graphics/SVG/1.1/DTD/svg11.dtd"><svg t="1751799467701" class="icon" viewBox="0 0 1024 1024" version="1.1" xmlns="http://www.w3.org/2000/svg" p-id="1462" width="16" height="16" xmlns:xlink="http://www.w3.org/1999/xlink"><path d="M533.333333 853.333333a42.666667 42.666667 0 1 1 0 85.333334h-42.666666a42.666667 42.666667 0 1 1 0-85.333334h42.666666zM512 106.666667a42.666667 42.666667 0 0 1 42.666667 42.666666v21.333334l-0.128 3.008C699.349333 194.325333 810.666667 318.826667 810.666667 469.333333v209.045334l67.733333 121.92A21.333333 21.333333 0 0 1 859.733333 832H164.266667a21.333333 21.333333 0 0 1-18.666667-31.701333L213.333333 678.4V469.333333c0-150.506667 111.317333-274.986667 256.106667-295.658666A46.698667 46.698667 0 0 1 469.333333 170.666667V149.333333a42.666667 42.666667 0 0 1 42.666667-42.666666z m0 128c-127.552 0-231.317333 101.76-234.581333 228.522666L277.333333 469.333333v209.066667a64 64 0 0 1-5.952 26.901333l-2.112 4.16L236.736 768h550.506667l-32.533334-58.538667a64 64 0 0 1-7.893333-26.453333L746.666667 678.4V469.333333c0-129.6-105.066667-234.666667-234.666667-234.666666z" fill="#707070" p-id="1463"></path></svg>