<?xml version="1.0" standalone="no"?><!DOCTYPE svg PUBLIC "-//W3C//DTD SVG 1.1//EN"
        "http://www.w3.org/Graphics/SVG/1.1/DTD/svg11.dtd">
<svg t="1737807705656" class="icon" viewBox="0 0 1024 1024" version="1.1" xmlns="http://www.w3.org/2000/svg" p-id="6029"
     width="16" height="16">
    <path d="M881.242434 131.480735L512.785705 60.261502 151.397315 131.480735l-32.210913 4.991187v460.417382c0 27.617096 6.791385 55.071631 20.470487 82.369629 13.588791 27.382287 31.386074 53.819319 53.379806 79.50376 21.999753 25.648316 47.015893 49.966051 75.024335 72.868913 28.050588 22.938987 56.564773 43.367329 85.638886 61.279006 29.068092 17.953821 57.076535 32.879215 84.061454 44.746077 26.99094 11.860841 50.676497 19.994849 71.098819 24.432129l8.639749 1.64968 9.428466-1.64968c19.91658-4.437279 43.096396-12.571287 69.527408-24.432129 26.437032-11.866862 53.66278-26.792255 81.707347-44.746077 28.008443-17.905656 55.619518-38.333998 82.881391-61.279006 27.225748-22.902863 51.459192-47.214577 72.67023-72.868913 21.211037-25.690461 38.340018-52.121473 51.459192-79.50376 13.077029-27.297997 19.639626-54.758553 19.639626-82.369629V136.471922l-23.571164-4.991187z m-55.619518 474.481812c0 21.253182-4.870772 42.229411-14.690585 62.850416-9.777668 20.663151-22.860718 40.537585-39.279252 59.629326-16.46068 19.133885-35.275466 37.081686-56.600897 53.777174-21.331452 16.695489-43.487744 31.855691-66.541125 45.528772-23.017257 13.667061-46.353612 25.491777-69.960901 35.504254-23.649433 10.018497-45.528772 17.442059-65.644036 22.312831V472.091581H198.383104V181.603326l310.164006-55.583394 4.35901 0.90311v345.168539h312.722817v133.870966z"
          p-id="6030" fill="#febf3a"></path>
</svg>