<?xml version="1.0" standalone="no"?><!DOCTYPE svg PUBLIC "-//W3C//DTD SVG 1.1//EN" "http://www.w3.org/Graphics/SVG/1.1/DTD/svg11.dtd"><svg t="1731171013499" class="icon" viewBox="0 0 1024 1024" version="1.1" xmlns="http://www.w3.org/2000/svg" p-id="3283" id="mx_n_1731171013500" width="16" height="16" xmlns:xlink="http://www.w3.org/1999/xlink"><path d="M712.64 956.032a240.128 240.128 0 0 1-170.88-70.784 240.128 240.128 0 0 1-70.848-170.88c0-64.64 25.152-125.312 70.784-170.944a240.128 240.128 0 0 1 170.88-70.784c64.64 0 125.312 25.088 170.944 70.784a240.128 240.128 0 0 1 70.784 170.88 240.064 240.064 0 0 1-70.784 170.88 240 240 0 0 1-170.88 70.848z m0-419.776a178.24 178.24 0 0 0-178.112 178.048 178.24 178.24 0 0 0 178.112 178.112 178.24 178.24 0 0 0 178.048-178.112 178.24 178.24 0 0 0-178.048-178.048z" fill="#FF4A4A" p-id="3284"></path><path d="M567.04 868.736l238.72-344.96 52.352 36.16-238.72 344.96-52.352-36.16z m-469.888 81.984a31.808 31.808 0 0 1-31.744-29.76 402.56 402.56 0 0 1 100.096-292.288A415.104 415.104 0 0 1 346.24 509.44a249.408 249.408 0 0 1-92.544-193.536c0-67.2 26.56-130.24 74.88-177.664a255.36 255.36 0 0 1 180.096-73.28 255.36 255.36 0 0 1 180.032 73.28 247.36 247.36 0 0 1 69.312 230.144 31.808 31.808 0 0 1-62.208-13.44 184.96 184.96 0 0 0 4.16-39.04c0-103.296-85.824-187.328-191.36-187.328-105.408 0-191.296 84.032-191.296 187.328 0 74.24 44.8 141.44 114.112 171.392 14.912 5.44 24.384 19.84 23.296 35.84a35.328 35.328 0 0 1-30.144 32.768c-168.96 25.536-296.32 171.328-296.32 339.136 0 7.296 0.192 14.72 0.64 21.888a31.808 31.808 0 0 1-31.744 33.92z" fill="#FF4A4A" p-id="3285"></path></svg>