<?xml version="1.0" standalone="no"?><!DOCTYPE svg PUBLIC "-//W3C//DTD SVG 1.1//EN"
        "http://www.w3.org/Graphics/SVG/1.1/DTD/svg11.dtd">
<svg t="1731169546214" class="icon" viewBox="0 0 1024 1024" version="1.1" xmlns="http://www.w3.org/2000/svg" p-id="1251"
     width="10" height="10">
    <path d="M873.386667 29.269333l-361.6 362.666667L150.186667 30.336c-33.066667-33.066667-87.466667-33.066667-120.533334 0-33.066667 33.066667-33.066667 87.466667 0 120.533333l361.6 361.6-361.6 361.6c-33.066667 33.066667-33.066667 87.466667 0 120.533334 33.066667 33.066667 87.466667 33.066667 120.533334 0l361.6-361.6 361.6 361.6c33.066667 33.066667 87.466667 33.066667 120.533333 0 33.066667-33.066667 33.066667-87.466667 0-120.533334l-361.6-361.6 361.6-361.6c33.066667-33.066667 33.066667-87.466667 0-120.533333-33.066667-34.133333-86.4-34.133333-120.533333-1.066667z"
          fill="#FF4A4A" p-id="1252"></path>
</svg>